<?xml version="1.0" encoding="utf-8"?>
<svg contentScriptType="text/ecmascript" xmlns:xlink="http://www.w3.org/1999/xlink" zoomAndPan="magnify" contentStyleType="text/css" viewBox="451.0 106.79999999999995 346.9999999999998 237.2000000000001" xmlns:cacoo="http://cacoo.com/" preserveAspectRatio="xMidYMin meet" xmlns="http://www.w3.org/2000/svg" version="1.1"><g><g transform="translate(466.0 121.79999999999995)"><path fill="#d4e1f5" fill-opacity="1.0" d="M25.0 207.2000000000001 Q20.02719081550855 207.2000000000001 15.432914190872756 199.31391956816955 Q10.838637566236956 191.4278391363388 7.322330470336315 176.85626253092647 Q3.806023374435668 162.28468592551448 1.9030116872178304 143.24600359302337 Q0.0 124.20732126053274 0.0 103.60000000000011 Q0.0 82.99267873946748 1.9030116872178304 63.95399640697676 Q3.8060233744356537 44.915314074486005 7.322330470336308 30.343737469073695 Q10.838637566236956 15.77216086366142 15.432914190872742 7.886080431830726 Q20.027190815508536 0.0 24.999999999999996 0.0 L291.9999999999997 0.0 Q296.97280918449115 0.0 301.567085809127 7.886080431830726 Q306.16136243376275 15.77216086366142 309.67766952966343 30.343737469073695 Q313.19397662556406 44.915314074486005 315.0969883127819 63.95399640697676 Q316.9999999999997 82.99267873946748 316.9999999999997 103.60000000000011 Q316.9999999999997 124.20732126053274 315.0969883127819 143.24600359302337 Q313.19397662556406 162.28468592551448 309.6776695296634 176.85626253092647 Q306.16136243376275 191.4278391363388 301.567085809127 199.31391956816955 Q296.97280918449115 207.2000000000001 291.9999999999997 207.2000000000001 L25.0 207.2000000000001z" stroke-width="2.0" stroke-linejoin="round" stroke="#5389d6"/><g transform="translate(15.0 5.0)"><defs><clipPath id="id0"><path d="M0 0 L287.0 0 L287.0 197.20000000000005 L0 197.20000000000005z"/></clipPath></defs><text font-size="14" clip-path="url(#id0)" text-decoration="none" fill="#000000" font-family="Arial,Arial" font-style="normal" font-weight="normal"/></g></g><g transform="translate(512.0 179.7)"><path fill="#e1d5e7" fill-opacity="1.0" d="M25.0 124.29999999999998 Q20.02719081550855 124.29999999999998 15.432914190872756 119.56911294557652 Q10.838637566236956 114.83822589115296 7.322330470336315 106.09668645074385 Q3.806023374435668 97.35514701033492 1.9030116872178304 85.93377532149033 Q0.0 74.51240363264574 0.0 62.14999999999999 Q0.0 49.78759636735425 1.9030116872178304 38.36622467850968 Q3.8060233744356537 26.94485298966507 7.322330470336308 18.203313549256062 Q10.838637566236956 9.461774108847072 15.432914190872742 4.730887054423543 Q20.027190815508536 0.0 24.999999999999996 0.0 L199.0000000000001 0.0 Q203.97280918449158 0.0 208.56708580912738 4.730887054423543 Q213.16136243376314 9.461774108847072 216.6776695296638 18.203313549256062 Q220.19397662556446 26.94485298966507 222.0969883127823 38.36622467850968 Q224.0000000000001 49.78759636735425 224.0000000000001 62.14999999999999 Q224.0000000000001 74.51240363264574 222.0969883127823 85.93377532149033 Q220.19397662556446 97.35514701033492 216.6776695296638 106.09668645074385 Q213.16136243376314 114.83822589115296 208.56708580912735 119.56911294557652 Q203.97280918449155 124.29999999999998 199.0000000000001 124.29999999999998 L25.0 124.29999999999998z" stroke-width="2.0" stroke-linejoin="round" stroke="#8856a1"/><g transform="translate(15.0 5.0)"><defs><clipPath id="id1"><path d="M0 0 L194.0 0 L194.0 114.30000000000001 L0 114.30000000000001z"/></clipPath></defs><text font-size="14" clip-path="url(#id1)" text-decoration="none" fill="#000000" font-family="Arial,Arial" font-style="normal" font-weight="normal"/></g></g><g transform="translate(569.0 225.39999999999998)"><path fill="#5389d6" fill-opacity="1.0" d="M25.0 50.0 Q20.02719081550855 50.0 15.432914190872756 48.09698831278217 Q10.838637566236956 46.19397662556434 7.322330470336315 42.67766952966369 Q3.806023374435668 39.161362433763045 1.9030116872178304 34.56708580912725 Q0.0 29.97280918449145 0.0 25.000000000000004 Q0.0 20.02719081550855 1.9030116872178304 15.432914190872758 Q3.8060233744356537 10.838637566236963 7.322330470336308 7.322330470336315 Q10.838637566236956 3.806023374435668 15.432914190872742 1.9030116872178375 Q20.027190815508536 0.0 24.999999999999996 0.0 L85.0 0.0 Q89.97280918449147 0.0 94.56708580912726 1.9030116872178375 Q99.16136243376305 3.806023374435668 102.67766952966369 7.322330470336315 Q106.19397662556435 10.838637566236963 108.09698831278217 15.432914190872758 Q110.0 20.02719081550855 110.0 25.000000000000004 Q110.0 29.97280918449145 108.09698831278217 34.56708580912725 Q106.19397662556433 39.161362433763045 102.67766952966369 42.67766952966369 Q99.16136243376305 46.19397662556434 94.56708580912725 48.09698831278217 Q89.97280918449145 50.0 85.0 50.0 L25.0 50.0z" stroke-width="2.0" stroke-linejoin="round" stroke="#286bcc"/><g transform="translate(15.0 5.0)"><defs><clipPath id="id2"><path d="M0 0 L80.0 0 L80.0 40.0 L0 40.0z"/></clipPath></defs><text font-size="14" clip-path="url(#id2)" text-decoration="none" fill="#ffffff" font-family="Arial,Arial" font-style="normal" font-weight="bold"><tspan x="19.0" xml:space="preserve" y="17.0" textLength="41.0">Social</tspan></text><text font-size="14" clip-path="url(#id2)" text-decoration="none" fill="#ffffff" font-family="Arial,Arial" font-style="normal" font-weight="normal"/><text font-size="14" clip-path="url(#id2)" text-decoration="none" fill="#ffffff" font-family="Arial,Arial" font-style="normal" font-weight="bold"><tspan x="9.0" xml:space="preserve" y="33.0" textLength="65.0">practices </tspan></text></g></g><g transform="translate(628.0 213.0)"><defs><clipPath id="id3"><path d="M0 0 L150.0 0 L150.0 40.0 L0 40.0z"/></clipPath></defs><text font-size="12" clip-path="url(#id3)" text-decoration="none" fill="#000000" font-family="Arial,Arial" font-style="normal" font-weight="normal"/></g><g transform="translate(553.0 186.0)"><defs><clipPath id="id4"><path d="M0 0 L150.0 0 L150.0 40.0 L0 40.0z"/></clipPath></defs><text font-size="14" clip-path="url(#id4)" text-decoration="none" fill="#6a2c89" font-family="Arial,Arial" font-style="normal" font-weight="bold"><tspan x="2.0" xml:space="preserve" y="15.0" textLength="139.0">Organisational Tools</tspan></text></g><g transform="translate(528.5 139.7)"><defs><clipPath id="id5"><path d="M0 0 L199.0 0 L199.0 40.0 L0 40.0z"/></clipPath></defs><text font-size="18" clip-path="url(#id5)" text-decoration="none" fill="#286bcc" font-family="Arial,Arial" font-style="normal" font-weight="bold"><tspan x="2.0" xml:space="preserve" y="18.0" textLength="189.0">Engineering Practices</tspan></text></g></g></svg>